<?xml version="1.0" encoding="UTF-8" standalone="no"?>
<!-- Created with Inkscape (http://www.inkscape.org/) -->

<svg
   xmlns:dc="http://purl.org/dc/elements/1.1/"
   xmlns:cc="http://creativecommons.org/ns#"
   xmlns:rdf="http://www.w3.org/1999/02/22-rdf-syntax-ns#"
   xmlns:svg="http://www.w3.org/2000/svg"
   xmlns="http://www.w3.org/2000/svg"
   xmlns:sodipodi="http://sodipodi.sourceforge.net/DTD/sodipodi-0.dtd"
   xmlns:inkscape="http://www.inkscape.org/namespaces/inkscape"
   width="744.09448819"
   height="1052.3622047"
   id="svg2"
   version="1.1"
   inkscape:version="0.48.3.1 r9886"
   sodipodi:docname="plus.svg">
  <defs
     id="defs4" />
  <sodipodi:namedview
     id="base"
     pagecolor="#ffffff"
     bordercolor="#666666"
     borderopacity="1.0"
     inkscape:pageopacity="0.0"
     inkscape:pageshadow="2"
     inkscape:zoom="1"
     inkscape:cx="440.14288"
     inkscape:cy="619.32423"
     inkscape:document-units="px"
     inkscape:current-layer="layer2"
     showgrid="false"
     inkscape:window-width="1440"
     inkscape:window-height="874"
     inkscape:window-x="-4"
     inkscape:window-y="-4"
     inkscape:window-maximized="1" />
  <metadata
     id="metadata7">
    <rdf:RDF>
      <cc:Work
         rdf:about="">
        <dc:format>image/svg+xml</dc:format>
        <dc:type
           rdf:resource="http://purl.org/dc/dcmitype/StillImage" />
        <dc:title></dc:title>
      </cc:Work>
    </rdf:RDF>
  </metadata>
  <g
     inkscape:groupmode="layer"
     id="layer2"
     inkscape:label="Background">
    <rect
       style="fill:#e6e6e6;fill-opacity:1;stroke:#b3b3b3;stroke-width:0;stroke-linecap:round;stroke-linejoin:miter;stroke-miterlimit:4;stroke-opacity:1;stroke-dasharray:none;stroke-dashoffset:0"
       id="rect3940"
       width="766.4162"
       height="1085.6244"
       x="-11.160858"
       y="-16.631104" />
    <path
       inkscape:connector-curvature="0"
       style="fill:#b3b3b3;fill-opacity:1;stroke:none"
       d="m 491.50435,414.88949 -0.0364,0.0364 c -19.18414,-18.21534 -44.10202,-31.24121 -44.10202,-31.24121 -16.48764,0 -14.7189,14.71889 -14.7189,14.71889 l 11.78605,11.78604 c -45.92988,60.06214 -95.98247,95.98247 -95.98247,95.98247 -51.74926,-29.87743 -57.70976,-15.30178 -57.70976,-15.30178 l 56.83533,56.83533 -87.62113,87.62112 c 0.3799,-0.19508 -0.01,1.6983 -30.8951,44.4117 42.7134,-30.88508 44.58857,-31.29322 44.39349,-30.91331 l 87.62113,-87.62113 56.83532,56.83533 c 0,0 14.57565,-5.9605 -15.30182,-57.70972 0,0 35.92032,-50.05259 95.98248,-95.98247 l 11.78604,11.78604 c 0,0 14.71889,1.76875 14.71889,-14.71889 0,0 -13.03476,-24.9336 -31.25943,-44.12024 l 0.0364,-0.0364 c -0.39473,-0.39473 -0.80155,-0.77555 -1.20225,-1.16588 -0.38635,-0.39684 -0.77506,-0.81143 -1.16589,-1.20226 z"
       id="path3768-9" />
    <path
       style="fill:#ffffff;fill-opacity:1;stroke:#cccccc;stroke-width:4.121912;stroke-miterlimit:4;stroke-opacity:1;stroke-dasharray:none"
       d="m 483.50434,405.88948 -0.0364,0.0364 c -19.18415,-18.21533 -44.10203,-31.2412 -44.10203,-31.2412 -16.48764,0 -14.71889,14.71889 -14.71889,14.71889 l 11.78605,11.78603 c -45.92992,60.06218 -95.98251,95.98251 -95.98251,95.98251 -51.74922,-29.87748 -57.70971,-15.30182 -57.70971,-15.30182 l 56.83532,56.83532 -87.62112,87.62113 c 0.3799,-0.19508 -0.0101,1.6983 -30.8951,44.4117 42.7134,-30.88508 44.58857,-31.29322 44.39348,-30.91331 l 87.62113,-87.62113 56.83532,56.83532 c 0,0 14.57565,-5.9605 -15.30181,-57.70971 0,0 35.92032,-50.05259 95.98247,-95.98247 l 11.78604,11.78604 c 0,0 14.71889,1.76875 14.71889,-14.71889 0,0 -13.03476,-24.9336 -31.25942,-44.12025 l 0.0364,-0.0364 c -0.39472,-0.39473 -0.80157,-0.77552 -1.20228,-1.16585 -0.38634,-0.39684 -0.77502,-0.81146 -1.16585,-1.20229 z"
       id="path3768"
       inkscape:connector-curvature="0" />
  </g>
  <g
     inkscape:label="Layer 1"
     inkscape:groupmode="layer"
     id="layer1" />
</svg>
